<svg width="260" height="50" viewBox="0 0 260 50" fill="none" xmlns="http://www.w3.org/2000/svg">
<g clip-path="url(#clip0_164_2)">
<path d="M74.5969 18.7603H81.0181V34.7972H85.4604V18.7603H91.8816V15.2028H74.5969V18.7603Z" fill="#179A6B"/>
<path d="M107.385 23.3012H98.9194V15.2028H94.4771V34.7972H98.9194V26.86H107.385V34.7972H111.827V15.2028H107.385V23.3012Z" fill="#179A6B"/>
<path d="M128.238 25.9974H116.692V29.5548H128.238V25.9974Z" fill="#179A6B"/>
<path d="M129.697 18.7603H136.118V34.7972H140.56V18.7603H146.981V15.2028H129.697V18.7603Z" fill="#179A6B"/>
<path d="M163.318 26.1863C164.308 25.7015 165.072 25.0166 165.613 24.1304C166.153 23.2456 166.424 22.219 166.424 21.0508C166.424 19.8826 166.153 18.8561 165.613 17.9712C165.073 17.0864 164.311 16.4016 163.327 15.9154C162.342 15.4306 161.203 15.1875 159.906 15.1875H149.577V34.7972H154.019V26.9127H156.715L162.03 34.7972H167.413L161.776 26.7183C162.324 26.5974 162.839 26.4196 163.318 26.1849V26.1863ZM154.019 18.7463H159.548C160.013 18.7463 160.419 18.8408 160.765 19.0297C161.111 19.2186 161.378 19.4881 161.567 19.8381C161.756 20.1882 161.851 20.5924 161.851 21.0508C161.839 21.5092 161.741 21.9134 161.552 22.2635C161.363 22.6135 161.096 22.883 160.75 23.0719C160.404 23.2608 160.004 23.3553 159.55 23.3553H154.021V18.7463H154.019Z" fill="#179A6B"/>
<path d="M177.158 15.2028L168.143 34.7986H172.927L174.25 31.6579H182.888L184.211 34.7986H188.995L179.98 15.2028H177.158ZM175.751 28.1004L178.569 21.4162L181.387 28.1004H175.749H175.751Z" fill="#179A6B"/>
<path d="M195.197 20.3577C195.504 19.8146 195.951 19.4006 196.534 19.1172C197.117 18.8339 197.826 18.6922 198.658 18.6922C199.296 18.6922 199.871 18.813 200.385 19.0561C200.898 19.2992 201.335 19.6493 201.698 20.1077C202.061 20.5661 202.328 21.1189 202.5 21.7648H207.105C206.812 20.3369 206.286 19.1172 205.524 18.106C204.762 17.0947 203.797 16.3252 202.629 15.7946C201.461 15.2639 200.137 15 198.656 15C196.861 15 195.327 15.2875 194.052 15.8626C192.777 16.4377 191.804 17.2711 191.134 18.363C190.464 19.4548 190.128 20.773 190.128 22.3191V27.6962C190.128 29.2423 190.462 30.5605 191.134 31.6523C191.804 32.7441 192.777 33.5748 194.052 34.1457C195.327 34.7166 196.863 35.0014 198.656 35.0014C200.137 35.0014 201.459 34.7361 202.621 34.2068C203.782 33.6762 204.745 32.9067 205.507 31.8954C206.269 30.8842 206.802 29.6645 207.105 28.2366H202.5C202.338 28.8922 202.079 29.4492 201.722 29.9076C201.366 30.366 200.928 30.7147 200.408 30.9522C199.89 31.1897 199.305 31.3092 198.656 31.3092C197.824 31.3092 197.115 31.1675 196.532 30.8842C195.949 30.6008 195.503 30.1896 195.195 29.6506C194.888 29.1117 194.734 28.4602 194.734 27.6962V22.3191C194.734 21.5551 194.888 20.9022 195.195 20.3577H195.197Z" fill="#179A6B"/>
<path d="M215.117 15.2028H210.513V34.7986H215.117V15.2028Z" fill="#179A6B"/>
<path d="M233.797 29.5493L225.414 15.2028H219.982V34.7847H224.231V20.6577L232.581 34.7847H238.046V15.2028H233.797V29.5493Z" fill="#179A6B"/>
<path d="M251.829 23.8415V27.399H255.396V27.7226C255.396 28.4325 255.233 29.0478 254.909 29.5687C254.585 30.0896 254.122 30.4869 253.524 30.7619C252.924 31.0356 252.223 31.1731 251.425 31.1731C250.626 31.1731 249.9 31.0481 249.284 30.7953C248.667 30.5439 248.192 30.1841 247.856 29.7174C247.522 29.2506 247.353 28.7117 247.353 28.1005V22.3191C247.353 21.6273 247.519 21.0161 247.848 20.4869C248.177 19.9563 248.642 19.5479 249.242 19.2603C249.842 18.9728 250.537 18.8297 251.326 18.8297C251.866 18.8297 252.389 18.9089 252.89 19.0659C253.393 19.2228 253.831 19.452 254.204 19.7535C254.577 20.0549 254.844 20.4119 255.006 20.8244H259.806C259.525 19.666 258.987 18.6464 258.193 17.7657C257.399 16.885 256.407 16.2044 255.218 15.7237C254.028 15.2431 252.731 15.0028 251.326 15.0028C249.618 15.0028 248.115 15.3056 246.818 15.9127C245.521 16.5197 244.519 17.3754 243.81 18.4797C243.101 19.5854 242.747 20.8647 242.747 22.3205V28.1019C242.747 29.477 243.106 30.6855 243.825 31.7274C244.544 32.7692 245.56 33.5762 246.874 34.1471C248.187 34.718 249.703 35.0028 251.421 35.0028C253.139 35.0028 254.632 34.7 255.929 34.093C257.226 33.4859 258.228 32.6289 258.937 31.519C259.646 30.4091 259.998 29.127 259.998 27.6712V23.8443H251.826L251.829 23.8415Z" fill="#179A6B"/>
</g>
<path d="M55.9669 12.0633C55.1753 11.0106 54.2254 10.379 52.8954 9.74734L34.7358 1.03625C31.8702 -0.345417 28.3079 -0.345417 25.4423 1.03625L7.25105 9.74734C5.81031 10.4316 3.89461 11.708 3.73628 13.3134C3.37214 17.1162 9.27758 19.498 13.2198 21.2481C20.0118 24.2483 24.4132 25.9984 27.7222 28.8144C28.4504 29.446 29.622 30.5381 30.0495 31.4066C30.477 30.5381 31.6486 29.446 32.3768 28.8144C35.7016 25.9852 40.0871 24.2483 46.8792 21.2481C50.7581 19.5243 56.4735 17.3531 56.3627 13.3134C56.3627 12.9975 56.1886 12.4186 55.9352 12.0633H55.9669ZM30.0812 22.6429C26.8989 22.6429 24.3182 20.498 24.3182 17.8531C24.3182 15.2082 26.8989 13.0633 30.0812 13.0633C33.2634 13.0633 35.8441 15.2082 35.8441 17.8531C35.8441 20.498 33.2634 22.6429 30.0812 22.6429Z" fill="url(#paint0_linear_164_2)"/>
<path d="M46.9265 23.7615C38.8521 27.3275 33.1841 28.9855 30.9834 34.749C30.7143 35.4333 30.3818 36.1702 30.0652 37.5913C29.7485 36.1833 29.4002 35.4464 29.1469 34.7622C26.9462 28.9987 21.2783 27.3407 13.2038 23.7746C4.81272 20.077 3.02368 18.2217 2.70703 17.4453V33.8806C2.70703 36.6307 4.48024 39.1835 7.34588 40.5652L25.4897 49.2763C26.1546 49.5921 26.7404 49.8289 27.3895 50C27.1679 49.3552 26.9146 48.671 26.5979 47.9341C20.93 34.7227 10.8923 31.4857 10.8923 31.4857C10.8923 31.4857 15.5628 31.8015 22.244 37.5255C25.4738 40.302 28.0228 43.6312 30.0493 47.0919C30.0493 47.0919 34.4982 40.3941 37.8705 37.5124C44.5517 31.7752 49.2222 31.4725 49.2222 31.4725C49.2222 31.4725 39.1846 34.7227 33.5166 47.9209C33.2 48.6447 32.9466 49.3421 32.725 49.9869C33.3741 49.8158 33.9599 49.5789 34.6249 49.2631L52.7686 40.552C55.6343 39.1704 57.4075 36.6176 57.4075 33.8674V17.4321C57.0908 18.2085 55.3018 20.0639 46.9265 23.7615Z" fill="url(#paint1_linear_164_2)"/>
<defs>
<linearGradient id="paint0_linear_164_2" x1="3.72045" y1="15.6951" x2="56.3944" y2="15.6951" gradientUnits="userSpaceOnUse">
<stop stop-color="#35A1FF"/>
<stop offset="1" stop-color="#27D8FF"/>
</linearGradient>
<linearGradient id="paint1_linear_164_2" x1="36.4614" y1="10.2211" x2="24.0055" y2="55.3983" gradientUnits="userSpaceOnUse">
<stop stop-color="#179A6B"/>
<stop offset="1" stop-color="#AED136"/>
</linearGradient>
<clipPath id="clip0_164_2">
<rect width="185.403" height="20" fill="white" transform="translate(74.5969 15)"/>
</clipPath>
</defs>
</svg>
