<svg width="259" height="45" viewBox="0 0 259 45" fill="none" xmlns="http://www.w3.org/2000/svg">
<g clip-path="url(#clip0_2712_6)">
<path d="M51.082 15.293H57.252V33.8203H61.5234V15.293H67.6934V11.1797H51.082V15.293Z" fill="#25B280"/>
<path d="M83.373 23.8711C84.3223 23.3086 85.0605 22.5176 85.5703 21.498C86.0977 20.4785 86.3437 19.2832 86.3437 17.9297C86.3437 16.5762 86.0801 15.3984 85.5703 14.3613C85.043 13.3418 84.3223 12.5508 83.373 11.9883C82.4238 11.4258 81.334 11.1445 80.0859 11.1445H74.4258H71.8594H70.1543V33.8027H74.4258V24.6973H77.0098L82.1074 33.8027H87.2754L81.8613 24.4688C82.4238 24.3457 82.916 24.1348 83.373 23.8711ZM74.4434 15.2754H79.752C80.1914 15.2754 80.5957 15.3809 80.9121 15.6094C81.2461 15.8203 81.5098 16.1367 81.6855 16.541C81.8613 16.9453 81.9668 17.4199 81.9668 17.9473C81.9492 18.4746 81.8613 18.9492 81.6855 19.3535C81.5098 19.7578 81.2461 20.0742 80.9121 20.2852C80.5781 20.4961 80.1914 20.6191 79.752 20.6191H74.4434V15.2754Z" fill="#25B280"/>
<path d="M96.6797 11.1797L88.0137 33.8379H92.6016L93.8672 30.2168H102.164L103.43 33.8379H108.018L99.3867 11.1797H96.6797ZM95.3262 26.0859L98.0332 18.3516L100.74 26.0859H95.3262Z" fill="#25B280"/>
<path d="M114.012 17.1387C114.311 16.5059 114.732 16.0313 115.295 15.6973C115.857 15.3633 116.543 15.2051 117.334 15.2051C117.949 15.2051 118.494 15.3457 118.986 15.627C119.479 15.9082 119.9 16.3125 120.252 16.8398C120.604 17.3672 120.85 18 121.025 18.7559H125.455C125.174 17.1035 124.664 15.6973 123.943 14.5195C123.205 13.3594 122.291 12.4629 121.166 11.8477C120.041 11.2324 118.775 10.9336 117.352 10.9336C115.629 10.9336 114.152 11.2676 112.922 11.9355C111.691 12.6035 110.76 13.5703 110.109 14.8184C109.459 16.084 109.143 17.5957 109.143 19.3887V25.6113C109.143 27.4043 109.459 28.916 110.109 30.1816C110.76 31.4473 111.691 32.3965 112.922 33.0645C114.152 33.7324 115.629 34.0488 117.352 34.0488C118.775 34.0488 120.041 33.75 121.166 33.1348C122.291 32.5195 123.205 31.623 123.943 30.4629C124.682 29.3027 125.191 27.8789 125.473 26.2266H121.043C120.885 26.9824 120.639 27.6328 120.287 28.1602C119.953 28.6875 119.531 29.0918 119.021 29.373C118.529 29.6543 117.967 29.7773 117.334 29.7773C116.525 29.7773 115.857 29.6191 115.295 29.2852C114.732 28.9512 114.311 28.4766 114.012 27.8613C113.713 27.2461 113.572 26.4902 113.572 25.5938V19.3711C113.555 18.5098 113.713 17.7539 114.012 17.1387Z" fill="#25B280"/>
<path d="M130.57 11.1797H129.023V33.8203H130.57H133.295H144.211V29.707H133.295V24.627H142.488V20.5137H133.295V15.293H144.211V11.1797H133.295H130.57Z" fill="#25B280"/>
<path d="M154.582 11.1797L145.916 33.8379H150.504L151.77 30.2168H160.066L161.332 33.8379H165.92L157.289 11.1797H154.582ZM153.229 26.0859L155.936 18.3516L158.643 26.0859H153.229Z" fill="#25B280"/>
<path d="M183.059 23.1328C182.355 22.6582 181.494 22.3594 180.492 22.2188C181.424 22.0605 182.232 21.7617 182.883 21.3223C183.551 20.8828 184.061 20.3203 184.395 19.6523C184.746 18.9668 184.922 18.1934 184.922 17.3145C184.922 16.0313 184.658 14.9238 184.113 14.0098C183.568 13.0957 182.777 12.3926 181.74 11.9004C180.703 11.4258 179.455 11.1797 177.979 11.1797H173.004H170.613H168.75V33.8379H170.613H173.004H178.242C179.701 33.8379 180.967 33.5918 182.004 33.1172C183.041 32.6426 183.85 31.9395 184.395 31.0078C184.939 30.0762 185.221 28.9688 185.221 27.668V27.6152C185.221 26.6133 185.045 25.7344 184.676 24.9785C184.307 24.2227 183.762 23.6074 183.059 23.1328ZM177.855 15.293C178.734 15.293 179.42 15.5039 179.912 15.9082C180.387 16.3125 180.633 16.875 180.633 17.6133C180.633 18.4219 180.387 19.0547 179.912 19.4941C179.438 19.9336 178.752 20.1621 177.855 20.1621H173.021V15.293H177.855ZM180.932 27.0176C180.932 27.8613 180.668 28.5293 180.123 29.0039C179.596 29.4785 178.84 29.707 177.855 29.707H173.021V24.2578H177.855C178.506 24.2578 179.051 24.3633 179.508 24.5742C179.965 24.7852 180.316 25.1016 180.562 25.5059C180.809 25.9102 180.914 26.4023 180.914 26.9648V27.0176H180.932Z" fill="#25B280"/>
<path d="M193.465 11.1797H189.035V33.8379H193.465V11.1797Z" fill="#25B280"/>
<path d="M202.412 11.1797H198.141V33.8203H200.039H202.412H213.311V29.707H202.412V11.1797Z" fill="#25B280"/>
<path d="M220.553 11.1797H216.123V33.8379H220.553V11.1797Z" fill="#25B280"/>
<path d="M223.348 15.293H229.518V33.8203H233.789V15.293H239.941V11.1797H223.348V15.293Z" fill="#25B280"/>
<path d="M253.547 11.1797L249.223 20.9355L244.881 11.1797H240.416L247.078 25.084V33.8203H251.35V25.084L258.029 11.1797H253.547Z" fill="#25B280"/>
<path d="M42.2754 25.998C41.7832 25.5762 41.2735 25.1895 40.7813 24.7852C39.1114 23.4141 39.0938 21.6211 40.7461 20.25C41.3086 19.7754 41.9063 19.3359 42.4336 18.8613C43.6992 17.7188 44.0332 16.0488 43.2071 14.5547C41.9766 12.3223 40.6934 10.125 39.3926 7.94531C38.5313 6.52148 36.9317 5.97656 35.3496 6.48633C34.5235 6.75 33.7149 7.10156 32.8711 7.38281C31.2364 7.91016 29.6895 6.97852 29.3907 5.29102C29.2676 4.57031 29.1446 3.84961 29.0391 3.12891C28.7227 1.21289 27.334 0.0175781 25.4004 0C23.0274 0 20.6543 0 18.2813 0C16.295 0 14.9239 1.21289 14.625 3.19922C14.5196 3.91992 14.3965 4.64063 14.2559 5.36133C13.9395 6.94336 12.4278 7.875 10.8809 7.38281C10.0723 7.13672 9.29886 6.78516 8.49026 6.52148C6.76761 5.92383 5.11526 6.50391 4.18362 8.08594C2.95315 10.1777 1.74026 12.2695 0.544949 14.3965C-0.404269 16.084 -0.0702849 17.7891 1.42386 19.0371C1.96878 19.4941 2.53128 19.916 3.05862 20.373C4.53518 21.6563 4.51761 23.3965 3.04104 24.6797C2.44339 25.1895 1.793 25.6641 1.21292 26.1914C-0.0175506 27.3164 -0.351535 28.9688 0.439481 30.4277C1.68753 32.6777 2.97073 34.9102 4.30667 37.1074C5.13284 38.4785 6.75003 39.041 8.27933 38.5488C9.1055 38.2852 9.91409 37.9336 10.7578 37.6523C12.4453 37.0898 13.9746 38.0215 14.291 39.7793C14.4141 40.5 14.5371 41.2207 14.6426 41.9414C14.959 43.8047 16.3477 45 18.2285 45.0176C19.4239 45.0352 20.6367 45.0176 21.8321 45.0176C23.0098 45.0176 24.17 45.0176 25.3477 45.0176C27.3516 45.0176 28.7403 43.8223 29.0391 41.8711C29.1446 41.1504 29.2676 40.4297 29.3907 39.709C29.7071 38.0742 31.2188 37.1426 32.8184 37.6523C33.627 37.8984 34.4004 38.25 35.209 38.5137C36.9141 39.0938 38.5313 38.5137 39.4629 36.9844C40.7285 34.875 41.9414 32.748 43.1543 30.6035C44.0508 28.9336 43.7168 27.2461 42.2754 25.998ZM36.4043 35.209C33.9258 34.1191 31.5 33.2578 28.916 34.7695C26.3321 36.2637 25.8399 38.7949 25.5586 41.4492C23.045 41.4492 20.6192 41.4492 18.1055 41.4492C17.8242 38.8125 17.3321 36.2813 14.7657 34.7695C12.1817 33.2754 9.75589 34.1191 7.27737 35.209C6.02933 33.0469 4.81643 30.9551 3.55081 28.7578C5.74807 27.1406 7.68167 25.4531 7.66409 22.4473C7.64651 19.4766 5.71292 17.8242 3.55081 16.2246C4.79886 14.0801 6.01175 11.9531 7.27737 9.77344C9.75589 10.8633 12.1817 11.7246 14.7657 10.2129C17.3496 8.71875 17.8242 6.16992 18.1231 3.5332C20.6016 3.5332 23.0098 3.5332 25.5235 3.5332C25.6465 4.20117 25.7871 4.9043 25.8926 5.625C26.4903 9.65039 30.3399 12.0059 34.1719 10.6523C34.9102 10.3887 35.6309 10.1074 36.4043 9.80859C36.4746 9.91406 36.5274 9.9668 36.5801 10.0547C37.7578 12.0762 38.918 14.0977 40.1309 16.1895C39.6211 16.6113 39.1289 17.0156 38.6543 17.4023C35.1211 20.2852 35.1211 24.6621 38.6543 27.5449C39.1289 27.9316 39.6035 28.3184 40.1485 28.7578C38.8828 30.9199 37.67 33.0293 36.4043 35.209Z" fill="#25B380"/>
<path d="M38.6367 17.4199C39.1289 17.0156 39.6211 16.6113 40.1133 16.207C38.9004 14.1152 37.7227 12.0938 36.5625 10.0723C36.5273 10.002 36.457 9.93164 36.3867 9.82617C35.6133 10.1074 34.8926 10.4063 34.1543 10.6699C30.3223 12.0234 26.4727 9.66797 25.875 5.64258C25.7695 4.93945 25.6289 4.23633 25.5059 3.55078C22.9922 3.55078 20.584 3.55078 18.1055 3.55078C17.8066 6.1875 17.332 8.73633 14.748 10.2305C12.1641 11.7246 9.73828 10.8809 7.25977 9.79102C5.99414 11.9707 4.78125 14.0977 3.5332 16.2422C5.69531 17.8418 7.62891 19.4941 7.64648 22.4648C7.66406 25.4707 5.71289 27.1582 3.5332 28.7754C4.79883 30.9727 6.01172 33.0645 7.25977 35.2266C9.73828 34.1191 12.1641 33.2754 14.748 34.7871C17.332 36.2813 17.8066 38.8301 18.0879 41.4668C20.6191 41.4668 23.0273 41.4668 25.541 41.4668C25.8223 38.8125 26.3144 36.2813 28.8984 34.7871C31.4824 33.293 33.9082 34.1367 36.3867 35.2266C37.6523 33.0469 38.8652 30.9375 40.0957 28.8105C39.5508 28.3711 39.0762 27.9844 38.6016 27.5977C35.1035 24.6797 35.1035 20.3203 38.6367 17.4199ZM21.8848 34.1367C15.293 34.1543 10.1602 29.0215 10.1953 22.4121C10.2305 15.9258 15.3457 10.8633 21.8672 10.8633C28.3711 10.8809 33.4512 15.9785 33.4687 22.4824C33.4687 29.0039 28.3887 34.1016 21.8848 34.1367Z" fill="#50E6B4"/>
<path d="M21.8672 10.8633C15.3633 10.8457 10.2305 15.9258 10.1954 22.4121C10.1602 29.0215 15.293 34.1543 21.8848 34.1367C28.3712 34.1191 33.4512 29.0039 33.4512 22.5C33.4512 15.9785 28.3712 10.8808 21.8672 10.8633ZM21.8321 31.1484C17.0157 31.1484 13.2012 27.334 13.1837 22.5176C13.1837 17.666 17.0157 13.834 21.8672 13.8515C26.6837 13.8691 30.4805 17.7012 30.4629 22.5176C30.4629 27.334 26.6485 31.1484 21.8321 31.1484Z" fill="#B8FFE7"/>
<path d="M25.2422 19.3535C25.541 19.3535 25.8223 19.3535 26.1387 19.3535C26.1387 21.4453 26.1387 23.5371 26.1387 25.6465C25.8398 25.6465 25.5586 25.6465 25.2422 25.6465C25.2422 23.5547 25.2422 21.4453 25.2422 19.3535Z" fill="#25B280"/>
<path d="M17.8242 19.3535C18.4395 19.3535 19.0371 19.3535 19.6875 19.3535C19.6875 21.4453 19.6875 23.5547 19.6875 25.6465C19.0723 25.6465 18.4746 25.6465 17.8242 25.6465C17.8242 23.5547 17.8242 21.4629 17.8242 19.3535Z" fill="#25B280"/>
<path d="M21.1816 25.6465C20.8828 25.6465 20.6191 25.6465 20.3203 25.6465C20.3203 23.5547 20.3203 21.4629 20.3203 19.3535C20.6016 19.3535 20.8828 19.3535 21.1816 19.3535C21.1816 21.4453 21.1816 23.5371 21.1816 25.6465Z" fill="#25B280"/>
<path d="M27.1055 19.3535C27.3867 19.3535 27.668 19.3535 27.9668 19.3535C27.9668 21.4453 27.9668 23.5547 27.9668 25.6641C27.6855 25.6641 27.4043 25.6641 27.1055 25.6641C27.1055 23.5547 27.1055 21.4629 27.1055 19.3535Z" fill="#25B280"/>
<path d="M28.3184 25.6465C28.3184 23.5547 28.3184 21.4629 28.3184 19.3711C28.5469 19.3184 28.6348 19.3711 28.6172 19.4766C28.5996 19.7227 28.6172 19.9687 28.6172 20.2148C28.6172 21.9727 28.6172 23.748 28.6172 25.5059C28.6348 25.5937 28.6523 25.6992 28.3184 25.6465Z" fill="#25B280"/>
<path d="M15.3457 25.6465C15.3457 23.5547 15.3457 21.4453 15.3457 19.3535C15.8203 19.3184 16.1016 19.3359 16.0664 19.4414C16.0664 19.459 16.0664 19.4766 16.0664 19.5117C16.0664 21.4981 16.0664 23.502 16.0664 25.4883C16.0664 25.5762 16.1895 25.6992 15.3457 25.6465Z" fill="#25B280"/>
<path d="M24.2051 19.3535C24.2051 21.4453 24.2051 23.5371 24.2051 25.6465C22.7988 25.6816 22.043 25.6641 22.1309 25.5586C22.1484 25.541 22.1309 25.5234 22.1309 25.4883C22.1309 23.502 22.1309 21.498 22.1309 19.5117C22.1484 19.4238 21.7442 19.3008 24.2051 19.3535Z" fill="#25B280"/>
<path d="M26.7539 19.3535C26.7539 21.4453 26.7539 23.5547 26.7539 25.6465C26.5605 25.6816 26.4551 25.6641 26.4551 25.5586C26.4551 25.541 26.4551 25.5234 26.4551 25.4883C26.4551 23.502 26.4551 21.5156 26.4551 19.5117C26.4551 19.4238 26.4023 19.3008 26.7539 19.3535Z" fill="#25B280"/>
<path d="M14.9941 19.3531C14.9941 21.4449 14.9941 23.5543 14.9941 25.6461C14.8008 25.6812 14.6953 25.6636 14.6953 25.5582C14.6953 25.5406 14.6953 25.523 14.6953 25.4879C14.6953 23.5015 14.6953 21.4976 14.6953 19.5113C14.7129 19.4234 14.6602 19.3004 14.9941 19.3531Z" fill="#25B280"/>
<path d="M21.5332 25.6465C21.5332 23.5547 21.5332 21.4453 21.5332 19.3535C21.7266 19.3184 21.832 19.3359 21.8145 19.4414C21.8145 19.459 21.8145 19.4766 21.8145 19.4941C21.8145 21.4981 21.8145 23.502 21.8145 25.4883C21.8145 25.5938 21.8496 25.6992 21.5332 25.6465Z" fill="#25B280"/>
<path d="M17.1914 22.4824C17.1914 21.498 17.1914 20.5137 17.1914 19.5293C17.1914 19.4941 17.1738 19.4414 17.1914 19.4063C17.209 19.3887 17.2617 19.3535 17.2969 19.3535C17.3496 19.3535 17.4375 19.3887 17.4551 19.4063C17.4902 19.459 17.4727 19.4941 17.4727 19.5469C17.4727 21.5156 17.4727 23.502 17.4727 25.4707C17.4727 25.5059 17.4902 25.541 17.4727 25.5586C17.4375 25.5937 17.3848 25.6289 17.332 25.6641C17.2793 25.6289 17.209 25.6113 17.1914 25.5762C17.1738 25.541 17.1914 25.5059 17.1914 25.4707C17.1914 24.4687 17.1914 23.4668 17.1914 22.4824Z" fill="#25B280"/>
</g>
<defs>
<clipPath id="clip0_2712_6">
<rect width="258.029" height="45" fill="white"/>
</clipPath>
</defs>
</svg>
